<?xml version="1.0" encoding="utf-8"?>
<!-- Generator: Adobe Illustrator 27.5.0, SVG Export Plug-In . SVG Version: 6.00 Build 0)  -->
<svg version="1.1" xmlns="http://www.w3.org/2000/svg" xmlns:xlink="http://www.w3.org/1999/xlink" x="0px" y="0px"
	 viewBox="0 0 500 500" style="enable-background:new 0 0 500 500;" xml:space="preserve">
<g id="Background_Complete">
	<g>
		<rect y="382.398" style="fill:#EBEBEB;" width="500" height="0.25"/>
		<rect x="416.779" y="398.494" style="fill:#EBEBEB;" width="33.122" height="0.25"/>
		<rect x="322.527" y="401.208" style="fill:#EBEBEB;" width="8.693" height="0.25"/>
		<rect x="396.586" y="389.208" style="fill:#EBEBEB;" width="19.192" height="0.25"/>
		<rect x="52.459" y="390.888" style="fill:#EBEBEB;" width="43.193" height="0.25"/>
		<rect x="104.556" y="390.888" style="fill:#EBEBEB;" width="6.333" height="0.25"/>
		<rect x="131.471" y="395.111" style="fill:#EBEBEB;" width="93.676" height="0.25"/>
		<path style="fill:#EBEBEB;" d="M237.014,337.8H43.915c-3.147,0-5.708-2.561-5.708-5.708V60.66c0-3.147,2.561-5.708,5.708-5.708
			h193.099c3.146,0,5.707,2.561,5.707,5.708v271.432C242.721,335.239,240.16,337.8,237.014,337.8z M43.915,55.203
			c-3.01,0-5.458,2.448-5.458,5.458v271.432c0,3.01,2.448,5.458,5.458,5.458h193.099c3.009,0,5.457-2.448,5.457-5.458V60.66
			c0-3.009-2.448-5.458-5.457-5.458H43.915z"/>
		<path style="fill:#EBEBEB;" d="M453.31,337.8H260.212c-3.147,0-5.707-2.561-5.707-5.708V60.66c0-3.147,2.561-5.708,5.707-5.708
			H453.31c3.148,0,5.708,2.561,5.708,5.708v271.432C459.019,335.239,456.458,337.8,453.31,337.8z M260.212,55.203
			c-3.009,0-5.457,2.448-5.457,5.458v271.432c0,3.01,2.448,5.458,5.457,5.458H453.31c3.01,0,5.458-2.448,5.458-5.458V60.66
			c0-3.009-2.448-5.458-5.458-5.458H260.212z"/>
	</g>
	<g>
		<g>
			
				<rect x="82.529" y="92.057" transform="matrix(-1.836970e-16 1 -1 -1.836970e-16 285.0179 23.3816)" style="fill:#E0E0E0;" width="96.579" height="124.286"/>
			
				<rect x="70.398" y="107.633" transform="matrix(-1 -1.224647e-16 1.224647e-16 -1 261.6363 308.3998)" style="fill:#EBEBEB;" width="120.84" height="93.134"/>
			<polyline style="fill:none;stroke:#E0E0E0;stroke-width:0.8034;stroke-miterlimit:10;" points="86.794,151.265 86.794,185.808 
				174.843,185.808 174.843,132.275 			"/>
			<g>
				
					<line style="fill:none;stroke:#E0E0E0;stroke-width:0.8034;stroke-miterlimit:10;" x1="93.829" y1="146.207" x2="93.829" y2="185.808"/>
				
					<line style="fill:none;stroke:#E0E0E0;stroke-width:0.8034;stroke-miterlimit:10;" x1="100.554" y1="146.207" x2="100.554" y2="185.808"/>
				
					<line style="fill:none;stroke:#E0E0E0;stroke-width:0.8034;stroke-miterlimit:10;" x1="107.28" y1="146.207" x2="107.28" y2="185.808"/>
				
					<line style="fill:none;stroke:#E0E0E0;stroke-width:0.8034;stroke-miterlimit:10;" x1="114.005" y1="136.2" x2="114.005" y2="185.808"/>
				
					<line style="fill:none;stroke:#E0E0E0;stroke-width:0.8034;stroke-miterlimit:10;" x1="120.73" y1="146.207" x2="120.73" y2="185.808"/>
				
					<line style="fill:none;stroke:#E0E0E0;stroke-width:0.8034;stroke-miterlimit:10;" x1="127.455" y1="157.214" x2="127.455" y2="185.808"/>
				
					<line style="fill:none;stroke:#E0E0E0;stroke-width:0.8034;stroke-miterlimit:10;" x1="134.181" y1="157.214" x2="134.181" y2="185.808"/>
				
					<line style="fill:none;stroke:#E0E0E0;stroke-width:0.8034;stroke-miterlimit:10;" x1="140.906" y1="166.219" x2="140.906" y2="185.808"/>
				
					<line style="fill:none;stroke:#E0E0E0;stroke-width:0.8034;stroke-miterlimit:10;" x1="147.631" y1="157.214" x2="147.631" y2="185.808"/>
				
					<line style="fill:none;stroke:#E0E0E0;stroke-width:0.8034;stroke-miterlimit:10;" x1="154.357" y1="146.207" x2="154.357" y2="185.808"/>
				
					<line style="fill:none;stroke:#E0E0E0;stroke-width:0.8034;stroke-miterlimit:10;" x1="161.082" y1="146.207" x2="161.082" y2="185.808"/>
				
					<line style="fill:none;stroke:#E0E0E0;stroke-width:0.8034;stroke-miterlimit:10;" x1="167.807" y1="136.2" x2="167.807" y2="185.808"/>
			</g>
			<g>
				<g>
					<polygon style="fill:#F5F5F5;" points="138.831,173.826 114.025,141.613 99.27,157.404 93.039,150.658 87.265,157.259 
						81.243,151.993 92.876,138.692 99.304,145.65 114.614,129.266 139.392,161.443 172.308,125.891 178.178,131.326 					"/>
				</g>
				<g>
					<polygon style="fill:#F5F5F5;" points="168.277,124.344 179.739,123.689 180.393,135.15 					"/>
				</g>
			</g>
		</g>
		<g>
			<rect x="315.263" y="126.158" style="fill:#E0E0E0;" width="95.36" height="4.9"/>
			<rect x="319.652" y="108.098" style="fill:#EBEBEB;" width="4.201" height="18.06"/>
			<rect x="339.966" y="108.098" style="fill:#EBEBEB;" width="4.201" height="18.06"/>
			
				<rect x="364.592" y="107.872" transform="matrix(0.9855 -0.1698 0.1698 0.9855 -14.5268 63.9741)" style="fill:#EBEBEB;" width="4.201" height="18.06"/>
			<rect x="324.858" y="110.478" style="fill:#EBEBEB;" width="4.201" height="15.68"/>
			<rect x="334.514" y="110.478" style="fill:#EBEBEB;" width="4.201" height="15.68"/>
			<rect x="358.888" y="110.478" style="fill:#EBEBEB;" width="4.201" height="15.68"/>
			
				<rect x="347.235" y="110.209" transform="matrix(0.9762 -0.2169 0.2169 0.9762 -17.2874 78.5708)" style="fill:#EBEBEB;" width="4.201" height="15.68"/>
			<rect x="330.591" y="107.201" style="fill:#EBEBEB;" width="2.101" height="18.957"/>
			<rect x="355.579" y="107.201" style="fill:#EBEBEB;" width="2.101" height="18.957"/>
			<rect x="381.003" y="111.864" style="fill:#EBEBEB;" width="20.47" height="14.132"/>
		</g>
		<g>
			
				<rect x="315.263" y="162.735" transform="matrix(-1 -1.224647e-16 1.224647e-16 -1 725.886 330.3701)" style="fill:#E0E0E0;" width="95.36" height="4.899"/>
			
				<rect x="402.033" y="144.675" transform="matrix(-1 -1.224647e-16 1.224647e-16 -1 808.2668 307.4102)" style="fill:#EBEBEB;" width="4.201" height="18.06"/>
			
				<rect x="381.719" y="144.675" transform="matrix(-1 -1.224647e-16 1.224647e-16 -1 767.6385 307.4102)" style="fill:#EBEBEB;" width="4.201" height="18.06"/>
			
				<rect x="357.093" y="144.449" transform="matrix(-0.9855 -0.1698 0.1698 -0.9855 687.1017 365.7343)" style="fill:#EBEBEB;" width="4.201" height="18.06"/>
			
				<rect x="396.827" y="147.055" transform="matrix(-1 -1.224647e-16 1.224647e-16 -1 797.8555 309.7902)" style="fill:#EBEBEB;" width="4.201" height="15.68"/>
			
				<rect x="387.171" y="147.055" transform="matrix(-1 -1.224647e-16 1.224647e-16 -1 778.5428 309.7902)" style="fill:#EBEBEB;" width="4.201" height="15.68"/>
			
				<rect x="362.797" y="147.055" transform="matrix(-1 -1.224647e-16 1.224647e-16 -1 729.7955 309.7902)" style="fill:#EBEBEB;" width="4.201" height="15.68"/>
			
				<rect x="374.45" y="146.786" transform="matrix(-0.9762 -0.2169 0.2169 -0.9762 710.6007 387.2416)" style="fill:#EBEBEB;" width="4.201" height="15.681"/>
			
				<rect x="393.194" y="143.778" transform="matrix(-1 -1.224647e-16 1.224647e-16 -1 788.4895 306.5135)" style="fill:#EBEBEB;" width="2.101" height="18.957"/>
			
				<rect x="368.206" y="143.778" transform="matrix(-1 -1.224647e-16 1.224647e-16 -1 738.5124 306.5135)" style="fill:#EBEBEB;" width="2.101" height="18.957"/>
			
				<rect x="324.413" y="148.441" transform="matrix(-1 -1.224647e-16 1.224647e-16 -1 669.2962 311.0142)" style="fill:#EBEBEB;" width="20.47" height="14.132"/>
		</g>
		<g>
			<rect x="309.241" y="191.66" style="fill:#F5F5F5;" width="53.48" height="190.668"/>
			<rect x="313.853" y="197.102" style="fill:#EBEBEB;" width="44.257" height="180.911"/>
			<rect x="321.909" y="202.418" style="fill:#E0E0E0;" width="28.143" height="1.863"/>
			<rect x="321.909" y="210.478" style="fill:#E0E0E0;" width="28.143" height="1.863"/>
			<rect x="321.909" y="218.538" style="fill:#E0E0E0;" width="28.143" height="1.863"/>
			<rect x="321.909" y="226.598" style="fill:#E0E0E0;" width="28.143" height="1.863"/>
			<rect x="321.909" y="234.658" style="fill:#E0E0E0;" width="28.143" height="1.863"/>
			<rect x="321.909" y="242.718" style="fill:#E0E0E0;" width="28.143" height="1.863"/>
			<rect x="321.909" y="250.777" style="fill:#E0E0E0;" width="28.143" height="1.863"/>
			<rect x="321.909" y="316.326" style="fill:#E0E0E0;" width="28.143" height="1.863"/>
			<rect x="321.909" y="324.386" style="fill:#E0E0E0;" width="28.143" height="1.863"/>
			<rect x="321.909" y="332.446" style="fill:#E0E0E0;" width="28.143" height="1.863"/>
			<rect x="321.909" y="340.505" style="fill:#E0E0E0;" width="28.143" height="1.863"/>
			<rect x="321.909" y="348.565" style="fill:#E0E0E0;" width="28.143" height="1.863"/>
			<rect x="321.909" y="356.625" style="fill:#E0E0E0;" width="28.143" height="1.863"/>
			<rect x="321.909" y="364.685" style="fill:#E0E0E0;" width="28.143" height="1.863"/>
			<path style="fill:#E0E0E0;" d="M351.437,278.365c0,1.718-1.393,3.111-3.111,3.111c-1.718,0-3.111-1.393-3.111-3.111
				c0-1.718,1.393-3.111,3.111-3.111C350.044,275.254,351.437,276.647,351.437,278.365z"/>
		</g>
		<g>
			<rect x="364.296" y="191.66" style="fill:#F5F5F5;" width="53.48" height="190.668"/>
			<rect x="368.908" y="197.102" style="fill:#EBEBEB;" width="44.257" height="180.911"/>
			<rect x="376.965" y="202.418" style="fill:#E0E0E0;" width="28.143" height="1.863"/>
			<rect x="376.965" y="210.478" style="fill:#E0E0E0;" width="28.143" height="1.863"/>
			<rect x="376.965" y="218.538" style="fill:#E0E0E0;" width="28.143" height="1.863"/>
			<rect x="376.965" y="226.598" style="fill:#E0E0E0;" width="28.143" height="1.863"/>
			<rect x="376.965" y="234.658" style="fill:#E0E0E0;" width="28.143" height="1.863"/>
			<rect x="376.965" y="242.718" style="fill:#E0E0E0;" width="28.143" height="1.863"/>
			<rect x="376.965" y="250.777" style="fill:#E0E0E0;" width="28.143" height="1.863"/>
			<rect x="376.965" y="316.326" style="fill:#E0E0E0;" width="28.143" height="1.863"/>
			<rect x="376.965" y="324.386" style="fill:#E0E0E0;" width="28.143" height="1.863"/>
			<rect x="376.965" y="332.446" style="fill:#E0E0E0;" width="28.143" height="1.863"/>
			<rect x="376.965" y="340.505" style="fill:#E0E0E0;" width="28.143" height="1.863"/>
			<rect x="376.965" y="348.565" style="fill:#E0E0E0;" width="28.143" height="1.863"/>
			<rect x="376.965" y="356.625" style="fill:#E0E0E0;" width="28.143" height="1.863"/>
			<rect x="376.965" y="364.685" style="fill:#E0E0E0;" width="28.143" height="1.863"/>
			<path style="fill:#E0E0E0;" d="M406.493,278.365c0,1.718-1.393,3.111-3.112,3.111c-1.718,0-3.111-1.393-3.111-3.111
				c0-1.718,1.393-3.111,3.111-3.111C405.099,275.254,406.493,276.647,406.493,278.365z"/>
		</g>
	</g>
</g>
<g id="Background_Simple" style="display:none;">
	<g style="display:inline;">
		<path style="fill:#407BFF;" d="M81.922,110.141c27.919-59.449,127.059-51.062,165.317-9.255
			c38.258,41.806,50.696,68.599,85.208,52.983c34.512-15.616,78.518-11.44,81.042,38.164S375.576,300.296,311.4,317.647
			c-64.177,17.352-64.161,78.759-149.1,66.368c-46.31-6.756-47.365-56.86-40.825-98.301S49.543,179.084,81.922,110.141z"/>
		<path style="opacity:0.9;fill:#FFFFFF;" d="M81.922,110.141c27.919-59.449,127.059-51.062,165.317-9.255
			c38.258,41.806,50.696,68.599,85.208,52.983c34.512-15.616,78.518-11.44,81.042,38.164S375.576,300.296,311.4,317.647
			c-64.177,17.352-64.161,78.759-149.1,66.368c-46.31-6.756-47.365-56.86-40.825-98.301S49.543,179.084,81.922,110.141z"/>
	</g>
</g>
<g id="Shadow_1_">
	<ellipse id="_x3C_Path_x3E__359_" style="fill:#F5F5F5;" cx="250" cy="416.238" rx="193.889" ry="11.323"/>
</g>
<g id="Plant">
	<g>
		<polygon style="fill:#263238;" points="148.534,414.816 110.916,414.816 105.916,378.236 153.534,378.236 		"/>
		<path style="fill:#407BFF;" d="M129.248,378.295c0,0-5.266-24.885,4.324-38.366c9.59-13.48-8.668-0.155-10.768,12.463
			c0,0-3.147-22.562,6.156-38.436c9.303-15.874-8.103-2.84-9.581,13.516c0,0-2.85-20.129,1.424-31.44
			c4.274-11.311-3.162-4.038-6.021,3.053c-2.859,7.09,0.892,24.648,0.892,24.648s-7.46-32.466-14.522-29.882
			c-7.062,2.584,10.557,23.855,13.001,34.921c0,0-8.327-14.891-14.644-11.791c-6.317,3.1,9.784,4.642,17.156,26.846l2.59,10.411
			c0,0-7.662-14.696-12.672-10.06c-5.01,4.636,14.855,12.638,19.471,34.912L129.248,378.295z"/>
		<path style="fill:#407BFF;" d="M128.216,379.728c0,0-1.107-31.375-16.61-44.663s10.335-2.768,16.61,11.72
			c0,0-2.953-27.961-18.825-44.202c-15.872-16.241,8.859-5.816,15.503,13.333c0,0-2.584-24.958-11.074-37.232
			c-8.49-12.275,2.584-5.778,8.121,1.863c5.537,7.641,6.275,29.788,6.275,29.788s-0.738-41.108,8.49-40.117
			c9.228,0.991-5.537,31.718-5.168,45.699c0,0,5.537-20.317,14.027-18.486c8.49,1.831-10.335,8.475-12.55,37.266v13.241
			c0,0,4.798-19.885,12.181-15.825c7.382,4.06-14.027,19.563-12.919,47.616H128.216z"/>
		<path style="opacity:0.2;fill:#FFFFFF;enable-background:new    ;" d="M128.216,379.728c0,0-1.107-31.375-16.61-44.663
			s10.335-2.768,16.61,11.72c0,0-2.953-27.961-18.825-44.202c-15.872-16.241,8.859-5.816,15.503,13.333
			c0,0-2.584-24.958-11.074-37.232c-8.49-12.275,2.584-5.778,8.121,1.863c5.537,7.641,6.275,29.788,6.275,29.788
			s-0.738-41.108,8.49-40.117c9.228,0.991-5.537,31.718-5.168,45.699c0,0,5.537-20.317,14.027-18.486
			c8.49,1.831-10.335,8.475-12.55,37.266v13.241c0,0,4.798-19.885,12.181-15.825c7.382,4.06-14.027,19.563-12.919,47.616H128.216z"
			/>
		<path style="fill:#263238;" d="M101.201,375.271v3.475c0,2.326,1.885,4.211,4.211,4.211h49.096c2.326,0,4.211-1.885,4.211-4.211
			v-3.475H101.201z"/>
		<path style="opacity:0.2;fill:#FFFFFF;enable-background:new    ;" d="M101.201,375.271v3.475c0,2.326,1.885,4.211,4.211,4.211
			h49.096c2.326,0,4.211-1.885,4.211-4.211v-3.475H101.201z"/>
	</g>
</g>
<g id="Character">
	<g>
		<path style="fill:#263238;" d="M312.18,177.199c-5.485,0.105-12.486,8.808-10.667,25.028c1.819,16.22,4.585,34.535,4.585,34.535
			s10.291-0.061,17.637-2.238c7.347-2.177,16.381-29.351,11.934-41.802c-4.447-12.451-9.336-15.246-14.013-16.618
			S312.18,177.199,312.18,177.199z"/>
		<g>
			<path style="fill:#CE7A63;" d="M328.105,232.447c0.46,4.493,0.723,8.952,0.872,13.441c0.064,2.242,0.127,4.485,0.135,6.73
				l0.011,1.922c-0.027,0.663-0.055,1.328-0.121,1.958c-0.118,1.275-0.316,2.491-0.545,3.677c-0.453,2.375-1.044,4.643-1.726,6.861
				c-0.666,2.222-1.419,4.392-2.227,6.531c-1.615,4.286-3.43,8.414-5.508,12.508c-0.599,1.181-2.042,1.652-3.223,1.053
				c-1.039-0.527-1.529-1.709-1.223-2.789l0.014-0.049c1.191-4.211,2.335-8.511,3.356-12.751c1.004-4.242,1.922-8.514,2.372-12.602
				c0.113-1.019,0.177-2.022,0.196-2.973c0.02-0.483,0.003-0.934-0.006-1.387c-0.032-0.426-0.053-0.815-0.13-1.422l-0.729-6.63
				c-0.459-4.416-0.85-8.858-1.129-13.26l-0.001-0.022c-0.168-2.658,1.851-4.95,4.509-5.118
				C325.595,227.96,327.84,229.886,328.105,232.447z"/>
		</g>
		<path style="fill:#407BFF;" d="M324.802,218.964c-5.837,2.951-7.832,10.123-6.813,23.985c3.442,3.472,12.995,3.321,12.995,3.321
			S335.286,223.71,324.802,218.964z"/>
		<path style="opacity:0.4;fill:#FFFFFF;" d="M331.295,243.67c-0.15,1.61-0.31,2.6-0.31,2.6s-9.55,0.15-13-3.32
			c-1.02-13.86,0.982-21.038,6.822-23.988c5.54,2.51,6.368,10.339,6.678,16.718C331.635,238.81,331.465,241.7,331.295,243.67z"/>
		<path style="opacity:0.2;" d="M331.295,243.67c-6.48-1.74-6.69-10.12-6.69-10.12c1.52,0.04,4.21,0.91,6.88,2.13
			C331.635,238.81,331.465,241.7,331.295,243.67z"/>
		<path style="fill:#407BFF;" d="M324.596,235.826c1.9,2.489,17.971,11.668,25.22,19.134l23.316-12.34
			c-6.154-6.553-11.79-15.14-20.085-34.399c-1.923-4.465-7.05-6.086-11.014-3.48c-1.059,0.696-2.164,1.458-3.271,2.272
			c-4.304,3.167-7.806,5.795-11.214,9.12c-1.129,1.102-2.267,2.282-3.339,3.432C320.344,223.714,321.191,231.365,324.596,235.826z"
			/>
		<path style="opacity:0.4;fill:#FFFFFF;" d="M324.596,235.826c1.9,2.489,17.971,11.668,25.22,19.134l23.316-12.34
			c-6.154-6.553-11.79-15.14-20.085-34.399c-1.923-4.465-7.05-6.086-11.014-3.48c-1.059,0.696-2.164,1.458-3.271,2.272
			c-4.304,3.167-7.806,5.795-11.214,9.12c-1.129,1.102-2.267,2.282-3.339,3.432C320.344,223.714,321.191,231.365,324.596,235.826z"
			/>
		<g>
			<path style="fill:#CE7A63;" d="M353.829,203.462c4.291,0.685,8.311,1.616,12.446,2.911c2.053,0.657,4.113,1.39,6.186,2.343
				c1.037,0.469,2.087,1.007,3.154,1.638c1.065,0.646,2.146,1.377,3.269,2.464c0.565,0.577,1.12,1.168,1.665,2.087
				c0.574,0.953,0.808,1.77,1.025,2.561c0.367,1.547,0.381,2.835,0.358,4.061c-0.074,2.431-0.48,4.602-0.955,6.718
				c-0.998,4.222-2.39,8.125-4.146,12.004c-0.548,1.21-1.972,1.747-3.183,1.2c-1.004-0.454-1.545-1.513-1.387-2.552l0.014-0.085
				c0.594-3.893,1.153-7.895,1.429-11.695c0.149-1.895,0.173-3.777,0.038-5.409c-0.07-0.8-0.229-1.553-0.402-1.967
				c-0.082-0.175-0.168-0.336-0.156-0.233c0.021,0.049-0.135-0.1-0.298-0.227c-0.371-0.293-1.009-0.671-1.711-1.019
				c-0.708-0.355-1.489-0.701-2.326-1.014c-1.669-0.623-3.463-1.193-5.302-1.69c-3.657-0.999-7.572-1.861-11.28-2.578l-0.112-0.022
				c-2.615-0.505-4.324-3.034-3.819-5.649C348.829,204.748,351.273,203.057,353.829,203.462z"/>
		</g>
		<path style="fill:#407BFF;" d="M340.539,205.639c3.998-5.214,9.675-5.247,20.416-1.93c1.789,3.947-1.033,13.264-1.033,13.264
			S344.754,218.152,340.539,205.639z"/>
		<path style="opacity:0.4;fill:#FFFFFF;" d="M340.539,205.639c3.998-5.214,9.675-5.247,20.416-1.93
			c1.789,3.947-1.033,13.264-1.033,13.264S344.754,218.152,340.539,205.639z"/>
		<path style="fill:#CE7A63;" d="M381.34,246.396l-2.019,0.481c-0.759,0.181-1.559-0.017-2.147-0.53l-2.748-2.398
			c-1.099-0.959-1.665-2.39-1.519-3.841l0.09-0.898c3.294-1.026,7.61,0.291,7.61,0.291l1.272,0.239
			c1.133,0.213,1.858,1.223,1.667,2.321l-0.441,2.526C382.952,245.459,382.25,246.179,381.34,246.396z"/>
		<g>
			<path style="fill:#263238;" d="M379.813,383.23l-1.21,0.77l-1.29-1.27l-2.83,4.36l-10.1,6.5c0,0-2.65-0.59,1.34-4.97
				c0.18-0.2,0.35-0.43,0.51-0.7c0.06-0.09,0.11-0.18,0.17-0.28c1.51-2.65,2.45-7.75,2.62-8.79c0.03-0.12,0.04-0.19,0.04-0.19
				l5.28-3.38l0.27-0.18c0.12,0.05,0.23,0.11,0.33,0.16c0.08,0.05,0.16,0.09,0.23,0.12c0.04,0.03,0.08,0.05,0.12,0.07
				c0.11,0.06,0.2,0.11,0.28,0.16c0.01,0.01,0.01,0.01,0.01,0.01C376.972,376.45,379.653,378.33,379.813,383.23z"/>
			<path style="fill:#CE7A63;" d="M375.582,375.62c-0.27-0.07-0.53,0.14-0.8,0.55c-0.44,0.7-0.89,1.98-1.37,3.36
				c-0.52,1.5-1.09,3.12-1.77,4.26c-1.48,2.49-3.62,4.54-5.41,4.13c0.06-0.09,0.11-0.18,0.17-0.28c1.26-2.32,1.92-7.13,2.17-9.3
				c0.07-0.69,0.11-1.11,0.11-1.11l4.46-2.87c0,0,0.45,0.22,0.98,0.49h0.01c0.16,0.08,0.32,0.16,0.48,0.25
				c0.12,0.05,0.23,0.11,0.33,0.16c0.08,0.05,0.16,0.09,0.23,0.12c0.04,0.03,0.08,0.05,0.12,0.07c0.11,0.06,0.2,0.11,0.28,0.16
				C375.582,375.62,375.582,375.62,375.582,375.62z"/>
		</g>
		<path style="fill:#CE7A63;" d="M374.783,376.17c0.26,0.53,0.53,1.06,0.8,1.58c-0.11,0.63-1.07,1.31-2.17,1.78
			c-1.3,0.57-2.81,0.85-3.36,0.43c0,0-0.36-0.39-1.03-1.11c-0.13-0.16-0.29-0.33-0.45-0.51c-1.02-1.12-2.5-2.77-4.3-4.84
			c-11.44-13.1-35.72-42.68-34.07-55.97c2.19-17.74,19.13-66.18,19.13-66.18l27.41,4.34c0,0-3.5,23.83-28.64,61.08
			c7.85,12.85,13.28,28.5,19.64,43.82c2,4.82,4.09,9.61,6.38,14.26h0.01c0.06,0.15,0.13,0.29,0.21,0.43
			C374.482,375.58,374.633,375.88,374.783,376.17z"/>
		<path style="opacity:0.2;" d="M379.813,383.23l-1.21,0.77l-1.29-1.27l-2.83,4.36l-10.1,6.5c0,0-2.65-0.59,1.34-4.97
			c0.18-0.2,0.35-0.43,0.51-0.7c0.06-0.09,0.11-0.18,0.17-0.28c1.26-2.32,1.92-7.13,2.17-9.3c-1.02-1.12-2.5-2.77-4.3-4.84
			l3.47-12.91c2,4.82,4.09,9.61,6.38,14.26h0.01c0.16,0.08,0.32,0.16,0.48,0.25c0.12,0.05,0.23,0.11,0.33,0.16
			c0.08,0.05,0.16,0.09,0.23,0.12c0.04,0.03,0.08,0.05,0.12,0.07c0.11,0.06,0.2,0.11,0.28,0.16c0.01,0.01,0.01,0.01,0.01,0.01
			C376.972,376.45,379.653,378.33,379.813,383.23z"/>
		<path style="fill:#CE7A63;" d="M357.553,252.649c0,0,6.305,48.789,9.918,72.268c3.795,24.659,4.277,64.226,3.328,80.35
			c1.381,0.802,4.386,0.244,7.106-0.607c0,0,14.647-52.253,6.348-77.308c7.777-57.055-3.478-71.027-3.478-71.027L357.553,252.649z"
			/>
		<path style="fill:#CE7A63;" d="M327.708,195.025c1.958,4.402,6.136,11.988,10.438,12.488c0,0-3.835,2.266-7.442,12.654
			c-4.552-1.305-3.772-3.535-3.772-3.535c3.314-4.291,1.005-7.373-1.767-9.776L327.708,195.025z"/>
		<path style="opacity:0.2;" d="M326.673,199.851l-1.507,7c0.658,0.567,1.286,1.174,1.816,1.83c1.373-1.486,2.238-4.992,1.212-6.832
			C327.683,200.932,327.08,200.141,326.673,199.851z"/>
		<path style="fill:#CE7A63;" d="M307.455,286.43l1.164-2.07c0.438-0.779,1.225-1.297,2.113-1.393l4.15-0.446
			c1.659-0.178,3.302,0.458,4.408,1.707l0.685,0.773c-1.696,3.565-6.156,6.169-6.156,6.169l-1.189,0.883
			c-1.059,0.786-2.472,0.611-3.245-0.402l-1.781-2.333C306.99,288.512,306.93,287.363,307.455,286.43z"/>
		<g>
			<path style="fill:#CE7A63;" d="M324.899,185.278c3.643,6.716,5.322,9.475,4.27,14.973c-1.582,8.27-10.261,11.633-15.748,6.228
				c-4.939-4.865-10.067-15.031-5.628-21.837C312.167,177.937,321.256,178.562,324.899,185.278z"/>
			<path style="fill:#263238;" d="M318.248,192.3c0.33,0.55,0.327,1.186-0.008,1.419c-0.335,0.233-0.873-0.024-1.203-0.574
				c-0.33-0.55-0.327-1.186,0.008-1.419C317.379,191.492,317.918,191.749,318.248,192.3z"/>
			<path style="fill:#263238;" d="M311.594,196.645c0.33,0.55,0.327,1.186-0.008,1.419c-0.335,0.233-0.873-0.024-1.204-0.574
				c-0.33-0.551-0.327-1.186,0.008-1.419C310.725,195.837,311.264,196.094,311.594,196.645z"/>
			<path style="fill:#263238;" d="M310.557,195.998l-1.458,0.477C309.099,196.474,310.349,197.067,310.557,195.998z"/>
			<path style="fill:#BA4D3C;" d="M314.308,196.467c0,0,0.553,2.976,0.283,4.786c1.083,0.207,2.046-0.905,2.046-0.905
				L314.308,196.467z"/>
			<path style="fill:#263238;" d="M320.799,200.329c-0.235,0.236-0.503,0.464-0.811,0.678c-0.083,0.058-0.194,0.032-0.247-0.057
				c-0.053-0.089-0.031-0.206,0.054-0.267c2.245-1.564,2.283-3.986,2.283-4.01c0-0.107,0.081-0.193,0.179-0.193
				c0.099,0,0.179,0.087,0.178,0.193C322.435,196.768,322.406,198.718,320.799,200.329z"/>
			<path style="fill:#263238;" d="M317.104,187.957c-0.065,0.072-0.158,0.117-0.26,0.115c-1.597-0.033-2.331,1.129-2.339,1.142
				c-0.108,0.173-0.33,0.221-0.496,0.102c-0.165-0.12-0.212-0.359-0.103-0.535c0.038-0.061,0.957-1.52,2.94-1.479
				c0.198,0.004,0.358,0.18,0.358,0.392C317.203,187.796,317.165,187.889,317.104,187.957z"/>
			<path style="fill:#263238;" d="M305.7,194.235c-0.092,0.01-0.185-0.014-0.259-0.075c-0.152-0.126-0.165-0.36-0.029-0.523
				c1.366-1.635,3.06-1.52,3.132-1.514c0.202,0.016,0.341,0.195,0.31,0.401c-0.031,0.205-0.22,0.358-0.422,0.343
				c-0.066-0.005-1.382-0.075-2.468,1.225C305.894,194.176,305.798,194.225,305.7,194.235z"/>
			<path style="fill:#263238;" d="M317.211,191.653l-1.458,0.477C315.753,192.13,317.003,192.722,317.211,191.653z"/>
			<path style="fill:#263238;" d="M313.025,183.634c0,0,8.113,7.803,13.881,5.747l2.573,6.617c0,0,5.04-9.991-3.136-17.375
				c-8.176-7.385-25.846-1.001-22.286,20.137C304.058,198.76,306.036,189.304,313.025,183.634z"/>
			<path style="fill:#CE7A63;" d="M330.256,189.159c0.118,1.797-0.553,3.423-1.48,4.445c-1.395,1.538-3.21,0.358-3.758-1.703
				c-0.493-1.854-0.362-4.889,1.489-5.648C328.33,185.507,330.121,187.105,330.256,189.159z"/>
		</g>
		<path style="fill:#263238;" d="M347.395,252.674l23.639-13.143l3.717,3.806c0,0,8.067,6.788,12.242,19.764
			c4.175,12.976,0,51.322,0,51.322l-1.957-17.954l-10.286,17.901l-43.255-10.204l16.186-48.013L347.395,252.674z"/>
		<g>
			<polygon points="347.992,252.78 348.722,255.13 347.392,255.84 346.992,253.33 			"/>
			<polygon points="359.932,246.15 361.372,248.41 349.363,254.79 348.602,252.44 			"/>
			<polygon points="369.253,240.97 370.802,243.4 362.342,247.89 360.832,245.65 			"/>
			<polygon points="373.832,241.79 371.783,242.88 370.162,240.47 371.852,239.53 			"/>
			<path style="fill:#FFFFFF;" d="M351.097,251.425l0.929,1.718c0.115,0.213,0.381,0.294,0.596,0.182l3.391-1.77
				c0.219-0.114,0.302-0.385,0.186-0.602l-0.966-1.81c-0.117-0.219-0.39-0.299-0.607-0.179l-3.354,1.862
				C351.059,250.944,350.981,251.211,351.097,251.425z"/>
		</g>
		<g>
			<path style="fill:#263238;" d="M378.363,414.446l-1.432-0.002l-0.398-1.768l-4.74,2.14h-12.01c0,0-1.91-1.92,3.81-3.45
				c0.26-0.07,0.53-0.17,0.81-0.31c3.05-1.43,7.39-6.26,7.39-6.26h6.59c0,0,0.23,0.33,0.54,0.95
				C379.644,407.196,380.887,410.239,378.363,414.446z"/>
			<path style="fill:#CE7A63;" d="M378.924,405.746c0,0.01,0,0.02,0,0.02c-0.87-0.97-4.83,3.29-7.73,4.74
				c-2.59,1.29-5.5,1.86-6.79,0.55c3.05-1.43,7.846-7.674,7.846-7.674h5.299C377.549,403.382,378.614,405.126,378.924,405.746z"/>
		</g>
		<path style="fill:#407BFF;" d="M339.145,219.51c-0.72-1.81-7.91-0.53-7.91-0.53c-2.59,0.99-5.36,5.82-3.72,6.99
			c1.32,0.93,2.67-3.91,2.82-4.47l-1.08,7.07h1.81l0.37-6.92l3.72,5.31l1.6-0.99l-4.42-5.47
			C337.595,223,339.865,221.32,339.145,219.51z M328.075,224.52c-0.32-1.09,1.58-3.37,1.58-3.37S328.395,225.61,328.075,224.52z
			 M332.955,219.64c0,0,4.51,0.03,4.61,0.7C337.665,221.02,334.045,220.4,332.955,219.64z"/>
		<path style="fill:#FFFFFF;" d="M331.495,218.024c2.667-1.603,7.389,0.295,7.389,0.295s1.4-7.625,0.89-11.968
			c-1.215,0.246-3.179,0.374-3.179,0.374S331.769,215.51,331.495,218.024z"/>
		<path style="fill:#FFFFFF;" d="M328.911,219.487c0,0-2.686,0.681-2.637,5.205c-3.016-6.867-0.143-8.314,1.449-9.238
			C326.641,217.994,328.911,219.487,328.911,219.487z"/>
	</g>
</g>
<g id="Chart">
	<g>
		<g>
			<g>
				<path style="fill:#407BFF;" d="M201.875,147.055h-10.139l0.911-12.371c0.051-0.689,0.625-1.222,1.316-1.222h5.686
					c0.691,0,1.265,0.533,1.316,1.222L201.875,147.055z"/>
				<path style="fill:#263238;" d="M203.535,148.441h-13.459v-3.359c0-0.72,0.583-1.303,1.303-1.303h10.852
					c0.72,0,1.303,0.583,1.303,1.303V148.441z"/>
				<path style="opacity:0.6;fill:#FFFFFF;" d="M203.535,148.441h-13.459v-3.359c0-0.72,0.583-1.303,1.303-1.303h10.852
					c0.72,0,1.303,0.583,1.303,1.303V148.441z"/>
				<circle style="opacity:0.6;fill:#FFFFFF;" cx="196.137" cy="140.375" r="2.285"/>
				<circle style="opacity:0.4;fill:#FFFFFF;" cx="198.832" cy="137.214" r="1.082"/>
			</g>
			<g>
				<path style="fill:#407BFF;" d="M277.922,147.055h-10.139l0.911-12.371c0.051-0.689,0.625-1.222,1.316-1.222h5.686
					c0.691,0,1.265,0.533,1.316,1.222L277.922,147.055z"/>
				<path style="fill:#263238;" d="M279.582,148.441h-13.459v-3.359c0-0.72,0.583-1.303,1.303-1.303h10.852
					c0.72,0,1.303,0.583,1.303,1.303V148.441z"/>
				<path style="opacity:0.6;fill:#FFFFFF;" d="M279.582,148.441h-13.459v-3.359c0-0.72,0.583-1.303,1.303-1.303h10.852
					c0.72,0,1.303,0.583,1.303,1.303V148.441z"/>
				<circle style="opacity:0.6;fill:#FFFFFF;" cx="272.185" cy="140.375" r="2.285"/>
				<circle style="opacity:0.4;fill:#FFFFFF;" cx="274.88" cy="137.214" r="1.082"/>
			</g>
		</g>
		<path style="fill:#263238;" d="M260.543,150.304h-51.429v-22.072c0-1.165,0.945-2.11,2.11-2.11h47.209
			c1.165,0,2.11,0.945,2.11,2.11V150.304z"/>
		<path style="fill:#263238;" d="M287.078,414.816H183.426V152.374c0-3.406,2.761-6.167,6.167-6.167h91.317
			c3.406,0,6.167,2.761,6.167,6.167V414.816z"/>
		<path style="opacity:0.3;fill:#FFFFFF;" d="M287.078,414.816H183.426V152.374c0-3.406,2.761-6.167,6.167-6.167h91.317
			c3.406,0,6.167,2.761,6.167,6.167V414.816z"/>
		<rect x="188.548" y="161.861" style="fill:#263238;" width="80.401" height="171.217"/>
		<g>
			<rect x="190.549" y="164.406" style="fill:#407BFF;" width="76.399" height="32.13"/>
			<rect x="190.549" y="164.406" style="opacity:0.4;" width="76.399" height="32.13"/>
			<g>
				<path style="fill:#FFFFFF;" d="M222.075,175.136v9.164h-1.702v-3.928h-4.739v3.928h-1.702v-9.164h1.702v3.783h4.739v-3.783
					H222.075z"/>
				<path style="fill:#FFFFFF;" d="M224.538,175.136h1.702v9.164h-1.702V175.136z"/>
				<path style="fill:#FFFFFF;" d="M234.974,179.614h1.61v3.652c-0.956,0.773-2.292,1.165-3.587,1.165
					c-2.841,0-4.936-1.977-4.936-4.713c0-2.736,2.095-4.713,4.962-4.713c1.532,0,2.814,0.51,3.679,1.492l-1.074,1.047
					c-0.72-0.72-1.544-1.047-2.526-1.047c-1.951,0-3.326,1.322-3.326,3.221c0,1.858,1.375,3.221,3.313,3.221
					c0.654,0,1.296-0.131,1.885-0.472V179.614z"/>
				<path style="fill:#FFFFFF;" d="M246.968,175.136v9.164h-1.702v-3.928h-4.739v3.928h-1.702v-9.164h1.702v3.783h4.739v-3.783
					H246.968z"/>
			</g>
		</g>
		<g>
			<rect x="190.549" y="197.969" style="fill:#407BFF;" width="76.399" height="32.13"/>
			<g style="opacity:0.2;">
				<rect x="190.549" y="197.969" width="76.399" height="32.13"/>
			</g>
		</g>
		<g>
			<rect x="190.549" y="231.533" style="fill:#407BFF;" width="76.399" height="32.13"/>
			<g>
				<path style="fill:#FFFFFF;" d="M222.35,251.428l-0.013-6.075l-3.011,5.027h-0.759l-3.011-4.948v5.996h-1.624v-9.164h1.401
					l3.64,6.074l3.574-6.074h1.401l0.013,9.164H222.35z"/>
				<path style="fill:#FFFFFF;" d="M233.311,250.001v1.427h-6.874v-9.164h6.69v1.427h-4.988v2.383h4.425v1.4h-4.425v2.527H233.311z"
					/>
				<path style="fill:#FFFFFF;" d="M235.21,242.264h4.006c2.972,0,5.001,1.833,5.001,4.582c0,2.749-2.029,4.582-5.001,4.582h-4.006
					V242.264z M239.138,249.987c2.042,0,3.365-1.243,3.365-3.142c0-1.898-1.322-3.143-3.365-3.143h-2.226v6.284H239.138z"/>
			</g>
		</g>
		<g>
			<rect x="190.549" y="265.097" style="fill:#407BFF;" width="76.399" height="32.13"/>
			<g style="opacity:0.2;">
				<rect x="190.549" y="265.097" style="fill:#FFFFFF;" width="76.399" height="32.13"/>
			</g>
		</g>
		<g>
			<rect x="190.549" y="298.661" style="fill:#407BFF;" width="76.399" height="32.13"/>
			<rect x="190.549" y="298.661" style="opacity:0.4;fill:#FFFFFF;" width="76.399" height="32.13"/>
			<g>
				<path style="fill:#FFFFFF;" d="M213.932,309.392h1.702v7.724h4.791v1.44h-6.494V309.392z"/>
				<path style="fill:#FFFFFF;" d="M220.951,313.974c0-2.71,2.095-4.713,4.936-4.713c2.841,0,4.936,1.989,4.936,4.713
					c0,2.723-2.095,4.713-4.936,4.713C223.046,318.686,220.951,316.684,220.951,313.974z M229.107,313.974
					c0-1.872-1.375-3.221-3.221-3.221c-1.846,0-3.221,1.349-3.221,3.221c0,1.872,1.374,3.221,3.221,3.221
					C227.733,317.194,229.107,315.846,229.107,313.974z"/>
				<path style="fill:#FFFFFF;" d="M245.737,309.392l-3.038,9.164h-1.807l-2.265-6.781l-2.304,6.781h-1.82l-3.037-9.164h1.768
					l2.278,6.965l2.37-6.965h1.571l2.317,7.004l2.344-7.004H245.737z"/>
			</g>
		</g>
		<rect x="274.07" y="161.861" style="fill:#263238;" width="7.795" height="171.217"/>
		<g>
			<path style="fill:#FFFFFF;" d="M226.258,142.297l-1.872-2.684c-0.118,0.013-0.235,0.013-0.354,0.013h-2.068v2.671h-1.702v-9.164
				h3.77c2.409,0,3.902,1.23,3.902,3.26c0,1.388-0.707,2.409-1.951,2.894l2.108,3.011H226.258z M223.953,134.572h-1.99v3.653h1.99
				c1.493,0,2.265-0.681,2.265-1.833C226.218,135.24,225.446,134.572,223.953,134.572z"/>
			<path style="fill:#FFFFFF;" d="M229.833,133.133h1.702v9.164h-1.702V133.133z"/>
			<path style="fill:#FFFFFF;" d="M233.238,141.328l0.589-1.322c0.733,0.589,1.898,1.008,3.024,1.008
				c1.427,0,2.029-0.511,2.029-1.191c0-1.977-5.446-0.681-5.446-4.085c0-1.479,1.178-2.735,3.692-2.735
				c1.1,0,2.251,0.288,3.05,0.812l-0.537,1.322c-0.825-0.484-1.728-0.721-2.527-0.721c-1.414,0-1.99,0.551-1.99,1.244
				c0,1.951,5.434,0.681,5.434,4.046c0,1.466-1.191,2.723-3.705,2.723C235.424,142.428,233.998,141.982,233.238,141.328z"/>
			<path style="fill:#FFFFFF;" d="M245.402,138.461l-1.453,1.492v2.344h-1.702v-9.164h1.702v4.699l4.53-4.699h1.912l-3.849,4.098
				l4.085,5.066h-1.99L245.402,138.461z"/>
		</g>
		<g>
			<g>
				<polygon style="fill:#263238;" points="268.301,332.536 263.594,331.036 268.301,329.536 				"/>
				<polygon style="fill:#263238;" points="268.301,326.88 263.594,325.38 268.301,323.88 				"/>
				<polygon style="fill:#263238;" points="268.301,321.223 263.594,319.723 268.301,318.223 				"/>
				<polygon style="fill:#263238;" points="268.301,315.567 263.594,314.067 268.301,312.567 				"/>
				<polygon style="fill:#263238;" points="268.301,309.911 263.594,308.411 268.301,306.911 				"/>
				<polygon style="fill:#263238;" points="268.301,304.255 263.594,302.755 268.301,301.255 				"/>
			</g>
			<g>
				<polygon style="fill:#263238;" points="268.301,299.015 263.594,297.515 268.301,296.015 				"/>
				<polygon style="fill:#263238;" points="268.301,293.359 263.594,291.859 268.301,290.359 				"/>
				<polygon style="fill:#263238;" points="268.301,287.702 263.594,286.202 268.301,284.702 				"/>
				<polygon style="fill:#263238;" points="268.301,282.046 263.594,280.546 268.301,279.046 				"/>
				<polygon style="fill:#263238;" points="268.301,276.39 263.594,274.89 268.301,273.39 				"/>
				<polygon style="fill:#263238;" points="268.301,270.734 263.594,269.234 268.301,267.734 				"/>
			</g>
			<g>
				<polygon style="fill:#263238;" points="268.301,265.494 263.594,263.994 268.301,262.494 				"/>
				<polygon style="fill:#263238;" points="268.301,259.837 263.594,258.337 268.301,256.837 				"/>
				<polygon style="fill:#263238;" points="268.301,254.181 263.594,252.681 268.301,251.181 				"/>
				<polygon style="fill:#263238;" points="268.301,248.525 263.594,247.025 268.301,245.525 				"/>
				<polygon style="fill:#263238;" points="268.301,242.869 263.594,241.369 268.301,239.869 				"/>
				<polygon style="fill:#263238;" points="268.301,237.212 263.594,235.712 268.301,234.212 				"/>
			</g>
			<g>
				<polygon style="fill:#263238;" points="268.301,231.973 263.594,230.473 268.301,228.973 				"/>
				<polygon style="fill:#263238;" points="268.301,226.316 263.594,224.816 268.301,223.316 				"/>
				<polygon style="fill:#263238;" points="268.301,220.66 263.594,219.16 268.301,217.66 				"/>
				<polygon style="fill:#263238;" points="268.301,215.004 263.594,213.504 268.301,212.004 				"/>
				<polygon style="fill:#263238;" points="268.301,209.348 263.594,207.848 268.301,206.348 				"/>
				<polygon style="fill:#263238;" points="268.301,203.691 263.594,202.191 268.301,200.691 				"/>
			</g>
			<g>
				<polygon style="fill:#263238;" points="268.301,198.452 263.594,196.952 268.301,195.452 				"/>
				<polygon style="fill:#263238;" points="268.301,192.795 263.594,191.295 268.301,189.795 				"/>
				<polygon style="fill:#263238;" points="268.301,187.139 263.594,185.639 268.301,184.139 				"/>
				<polygon style="fill:#263238;" points="268.301,181.483 263.594,179.983 268.301,178.483 				"/>
				<polygon style="fill:#263238;" points="268.301,175.827 263.594,174.327 268.301,172.827 				"/>
				<polygon style="fill:#263238;" points="268.301,170.17 263.594,168.67 268.301,167.17 				"/>
			</g>
		</g>
		<g>
			<polygon style="fill:#263238;" points="274.07,294.848 274.07,307.536 292.508,294.848 			"/>
			<polygon style="opacity:0.4;fill:#FFFFFF;" points="274.07,294.848 274.07,307.536 292.508,294.848 			"/>
			<path style="fill:#263238;" d="M267.728,287.676v0.01l-0.024-0.01l-9.493,3.983l9.493,3.983l0.024-0.01v0.01h51.384
				c0.732,0,1.325-0.593,1.325-1.325v-5.316c0-0.732-0.593-1.325-1.325-1.325H267.728z"/>
			<path style="opacity:0.6;fill:#FFFFFF;" d="M267.728,287.676v0.01l-0.024-0.01l-9.493,3.983l9.493,3.983l0.024-0.01v0.01h51.384
				c0.732,0,1.325-0.593,1.325-1.325v-5.316c0-0.732-0.593-1.325-1.325-1.325H267.728z"/>
			<polygon style="opacity:0.6;fill:#FFFFFF;" points="267.616,287.713 258.211,291.659 267.616,295.604 			"/>
			<polygon style="opacity:0.6;fill:#407BFF;" points="266.56,289.624 261.711,291.659 266.56,293.693 			"/>
		</g>
		
			<rect x="189.548" y="343.166" style="opacity:0.2;fill:none;stroke:#000000;stroke-miterlimit:10;" width="91.316" height="54.897"/>
		<line style="opacity:0.2;fill:none;stroke:#000000;stroke-miterlimit:10;" x1="183.426" y1="407.243" x2="287.078" y2="407.243"/>
	</g>
</g>
</svg>
